<svg id="visual" viewBox="0 0 960 300" width="960" height="300" xmlns="http://www.w3.org/2000/svg" xmlns:xlink="http://www.w3.org/1999/xlink" version="1.1"><rect x="0" y="0" width="960" height="300" fill="#001220"></rect><path d="M0 105L22.8 106.7C45.7 108.3 91.3 111.7 137 110.3C182.7 109 228.3 103 274 104.3C319.7 105.7 365.3 114.3 411.2 117.7C457 121 503 119 548.8 119C594.7 119 640.3 121 686 113.8C731.7 106.7 777.3 90.3 823 82.7C868.7 75 914.3 76 937.2 76.5L960 77L960 0L937.2 0C914.3 0 868.7 0 823 0C777.3 0 731.7 0 686 0C640.3 0 594.7 0 548.8 0C503 0 457 0 411.2 0C365.3 0 319.7 0 274 0C228.3 0 182.7 0 137 0C91.3 0 45.7 0 22.8 0L0 0Z" fill="#fa7268"></path><path d="M0 61L22.8 66.5C45.7 72 91.3 83 137 89.2C182.7 95.3 228.3 96.7 274 97.2C319.7 97.7 365.3 97.3 411.2 97C457 96.7 503 96.3 548.8 94.3C594.7 92.3 640.3 88.7 686 83.2C731.7 77.7 777.3 70.3 823 67.2C868.7 64 914.3 65 937.2 65.5L960 66L960 0L937.2 0C914.3 0 868.7 0 823 0C777.3 0 731.7 0 686 0C640.3 0 594.7 0 548.8 0C503 0 457 0 411.2 0C365.3 0 319.7 0 274 0C228.3 0 182.7 0 137 0C91.3 0 45.7 0 22.8 0L0 0Z" fill="#ef5f67"></path><path d="M0 62L22.8 61.5C45.7 61 91.3 60 137 60.2C182.7 60.3 228.3 61.7 274 61C319.7 60.3 365.3 57.7 411.2 57C457 56.3 503 57.7 548.8 58.2C594.7 58.7 640.3 58.3 686 61.8C731.7 65.3 777.3 72.7 823 74.2C868.7 75.7 914.3 71.3 937.2 69.2L960 67L960 0L937.2 0C914.3 0 868.7 0 823 0C777.3 0 731.7 0 686 0C640.3 0 594.7 0 548.8 0C503 0 457 0 411.2 0C365.3 0 319.7 0 274 0C228.3 0 182.7 0 137 0C91.3 0 45.7 0 22.8 0L0 0Z" fill="#e34c67"></path><path d="M0 54L22.8 50.8C45.7 47.7 91.3 41.3 137 40.8C182.7 40.3 228.3 45.7 274 45.5C319.7 45.3 365.3 39.7 411.2 38.8C457 38 503 42 548.8 40.8C594.7 39.7 640.3 33.3 686 35.3C731.7 37.3 777.3 47.7 823 52.2C868.7 56.7 914.3 55.3 937.2 54.7L960 54L960 0L937.2 0C914.3 0 868.7 0 823 0C777.3 0 731.7 0 686 0C640.3 0 594.7 0 548.8 0C503 0 457 0 411.2 0C365.3 0 319.7 0 274 0C228.3 0 182.7 0 137 0C91.3 0 45.7 0 22.8 0L0 0Z" fill="#d53867"></path><path d="M0 25L22.8 26C45.7 27 91.3 29 137 30.5C182.7 32 228.3 33 274 30C319.7 27 365.3 20 411.2 19.5C457 19 503 25 548.8 25C594.7 25 640.3 19 686 18.7C731.7 18.3 777.3 23.7 823 26C868.7 28.3 914.3 27.7 937.2 27.3L960 27L960 0L937.2 0C914.3 0 868.7 0 823 0C777.3 0 731.7 0 686 0C640.3 0 594.7 0 548.8 0C503 0 457 0 411.2 0C365.3 0 319.7 0 274 0C228.3 0 182.7 0 137 0C91.3 0 45.7 0 22.8 0L0 0Z" fill="#c62368"></path></svg>